<svg xmlns="http://www.w3.org/2000/svg" viewBox="0 0 24 24" fill="black" width="48px" height="48px">
  <circle cx="12" cy="12" r="12" fill="black" />
  <path d="M9.5 8h-2v8h2V8zm-1-1.25c-.69 0-1.25-.56-1.25-1.25S7.81 4.25 8.5 4.25s1.25.56 1.25 1.25-.56 1.25-1.25 1.25zM15.5 8h-2c-.55 0-1 .45-1 1v6c0 .55.45 1 1 1h2c.55 0 1-.45 1-1v-3.25c0-1.1-.9-2-2-2-.54 0-1.04.22-1.41.59l.88.88c.1-.1.27-.17.53-.17.41 0 .75.34.75.75V15h-2v-6h2v.75c.41-.41.99-.75 1.66-.75 1.31 0 2.34 1.02 2.34 2.34V15c0 .55-.45 1-1 1h-2c-.55 0-1-.45-1-1v-6c0-.55.45-1 1-1z" fill="white" />
</svg>