<svg xmlns="http://www.w3.org/2000/svg" viewBox="0 0 24 24" fill="currentColor" aria-hidden="true">
  <path fill-rule="evenodd" clip-rule="evenodd" d="M3 6C2.4477 6 2 6.44772 2 7V17C2 18.6569 3.34315 20 5 20H19C20.6569 20 22 18.6569 22 17V7C22 6.44772 21.5523 6 21 6H3ZM4.697 8.41L12 13.25L19.303 8.41C19.134 8.158 18.848 8 18.53 8H5.47C5.152 8 4.866 8.158 4.697 8.41ZM20 10.09L12.553 15.06C12.215 15.286 11.785 15.286 11.447 15.06L4 10.09V17C4 17.5523 4.4477 18 5 18H19C19.5523 18 20 17.5523 20 17V10.09Z"></path>
</svg>
